<?xml version="1.0" encoding="utf-8"?>
<!-- Generator: Adobe Illustrator 27.0.0, SVG Export Plug-In . SVG Version: 6.00 Build 0)  -->
<svg version="1.1" id="Layer_1" xmlns="http://www.w3.org/2000/svg" xmlns:xlink="http://www.w3.org/1999/xlink" x="0px" y="0px"
	 viewBox="0 0 391.51 135" style="enable-background:new 0 0 391.51 135;" xml:space="preserve">
<!-- Styling -->
<style type="text/css">
	@font-face {
		font-family: Slate;
		src: url('https://fonts.googleapis.com/css?family=Dosis:400,500,600,700');
	}
	.primary{fill:#8BC53F;}
	.accent{fill:#022940;}
	.black{fill:#000;}
	.white{fill:#fff;}
	.text{ font-family: "Slate"}
</style>
<!-- H with doorknob -->
<path class="primary" d="M0,10.35l21.71,0l0,33.26l32.29,0l0-33.26l21.71,0l0,87.26l-21.71,0l0-36.42l-32.29,0l0,36.42L0,97.61L0,10.35z
	"/>
<!-- O -->
<path class="primary" d="M106.94,94.55c-6.55-3.75-11.61-9.05-15.18-15.9c-3.57-6.85-5.36-14.86-5.36-24.03
	c0-9.17,1.79-17.17,5.36-24.03c3.57-6.85,8.63-12.13,15.18-15.83c6.55-3.7,14.27-5.56,23.15-5.56c8.89,0,16.6,1.85,23.16,5.56
	c6.55,3.7,11.59,8.98,15.11,15.83c3.53,6.85,5.29,14.86,5.29,24.03c0,9.17-1.77,17.17-5.29,24.03c-3.53,6.85-8.59,12.16-15.18,15.9
	c-6.6,3.75-14.29,5.62-23.09,5.62C121.21,100.17,113.49,98.3,106.94,94.55z M141.78,78.26c3.21-2.33,5.61-5.57,7.21-9.72
	c1.6-4.15,2.4-8.88,2.4-14.2c0-5.31-0.8-10.02-2.4-14.13c-1.6-4.1-4.01-7.32-7.21-9.65c-3.21-2.33-7.1-3.5-11.68-3.5
	c-4.58,0-8.47,1.17-11.68,3.5c-3.21,2.33-5.63,5.57-7.28,9.72c-1.65,4.15-2.47,8.84-2.47,14.06c0,5.32,0.82,10.05,2.47,14.2
	c1.65,4.15,4.07,7.39,7.28,9.72c3.21,2.33,7.1,3.5,11.68,3.5C134.67,81.76,138.57,80.59,141.78,78.26z"/>
<!-- M -->
<path class="primary" d="M185.43,10.99l27.62,0l18.41,61.43l18.55-61.43l27.48,0l2.89,87.26l-21.44,0L258.4,39.3l-17.73,58.95l-19.51,0
	L203.57,39.3l-0.69,58.95h-20.2L185.43,10.99z"/>
<!-- I -->
<path class="primary" d="M294.31,10.99l21.85,0l0,87.26l-21.85,0L294.31,10.99z"/>
<!-- E -->
<path class="primary" d="M331.33,10.99l58.81,0v16.9l-37.1,0v16.63l34.49,0V61.7l-34.49,0v18.96l38.48,0l0,17.59l-60.19,0L331.33,10.99z
	"/>
<!-- Door -->
<path class="accent" d="M0,10.35l0,87.26l37.86,10.35L37.86,0L0,10.35z M29.79,56.15c-2.07,0-3.75-1.68-3.75-3.75
	c0-2.07,1.68-3.75,3.75-3.75s3.75,1.68,3.75,3.75C33.54,54.47,31.86,56.15,29.79,56.15z"/>
<!-- Text  -->
<text x="50%" y="130" class="primary text" text-anchor="middle" font-size="1.7em">For professional real estate</text>
</svg>
