<?xml version="1.0" encoding="utf-8"?>
<!-- Generator: Adobe Illustrator 27.0.0, SVG Export Plug-In . SVG Version: 6.00 Build 0)  -->
<svg version="1.1" id="Layer_1" xmlns="http://www.w3.org/2000/svg" xmlns:xlink="http://www.w3.org/1999/xlink" x="0px" y="0px"
	 viewBox="0 0 90 115" style="enable-background:new 0 0 90 115;" xml:space="preserve">
<!-- Styling -->
<style type="text/css">
	@font-face {
		font-family: Slate;
		src: url('https://fonts.googleapis.com/css?family=Dosis:400,500,600,700');
	}
	.primary{fill:#8BC53F;}
	.accent{fill:#022940;}
	.black{fill:#000;}
	.white{fill:#fff;}
	.text{ font-family: "Slate"}
</style>
<!-- H with doorknob -->
<path class="black" d="M0,10.35l21.71,0l0,33.26l32.29,0l0-33.26l21.71,0l0,87.26l-21.71,0l0-36.42l-32.29,0l0,36.42L0,97.61L0,10.35z
	"/>
<!-- Door -->
<path class="primary" d="M0,10.35l0,87.26l37.86,10.35L37.86,0L0,10.35z M29.79,56.15c-2.07,0-3.75-1.68-3.75-3.75
	c0-2.07,1.68-3.75,3.75-3.75s3.75,1.68,3.75,3.75C33.54,54.47,31.86,56.15,29.79,56.15z"/>
</svg>
